<svg width="31" height="31" viewBox="0 0 31 31" fill="none" xmlns="http://www.w3.org/2000/svg">
<rect width="31" height="31" rx="5" fill="white"/>
<path d="M12.625 4H4V12.625H12.625V4ZM11.1875 11.1875H5.4375V5.4375H11.1875V11.1875Z" fill="#388BF2"/>
<path d="M6.875 6.875H9.75V9.75H6.875V6.875Z" fill="#388BF2"/>
<path d="M4 27H12.625V18.375H4V27ZM5.4375 19.8125H11.1875V25.5625H5.4375V19.8125Z" fill="#388BF2"/>
<path d="M6.875 21.25H9.75V24.125H6.875V21.25Z" fill="#388BF2"/>
<path d="M18.375 4V12.625H27V4H18.375ZM25.5625 11.1875H19.8125V5.4375H25.5625V11.1875Z" fill="#388BF2"/>
<path d="M21.25 6.875H24.125V9.75H21.25V6.875Z" fill="#388BF2"/>
<path d="M6.875 14.0625H4V16.9375H8.3125V15.5H6.875V14.0625Z" fill="#388BF2"/>
<path d="M14.0625 16.9375H16.9375V19.8125H14.0625V16.9375Z" fill="#388BF2"/>
<path d="M8.3125 14.0625H11.1875V15.5H8.3125V14.0625Z" fill="#388BF2"/>
<path d="M16.9375 21.25H14.0625V22.6875H15.5V24.125H16.9375V22.6875V21.25Z" fill="#388BF2"/>
<path d="M12.625 14.0625V15.5H11.1875V16.9375H14.0625V14.0625H12.625Z" fill="#388BF2"/>
<path d="M15.5 9.75H16.9375V12.625H15.5V9.75Z" fill="#388BF2"/>
<path d="M16.9375 15.5V16.9375H19.8125V14.0625H15.5V15.5H16.9375Z" fill="#388BF2"/>
<path d="M14.0625 12.625H15.5V14.0625H14.0625V12.625Z" fill="#388BF2"/>
<path d="M16.9375 24.125H19.8125V27H16.9375V24.125Z" fill="#388BF2"/>
<path d="M14.0625 24.125H15.5V27H14.0625V24.125Z" fill="#388BF2"/>
<path d="M16.9375 19.8125H18.375V21.25H16.9375V19.8125Z" fill="#388BF2"/>
<path d="M16.9375 8.3125V5.4375H15.5V4H14.0625V9.75H15.5V8.3125H16.9375Z" fill="#388BF2"/>
<path d="M21.25 24.125H22.6875V27H21.25V24.125Z" fill="#388BF2"/>
<path d="M21.25 21.25H24.125V22.6875H21.25V21.25Z" fill="#388BF2"/>
<path d="M19.8125 22.6875H21.25V24.125H19.8125V22.6875Z" fill="#388BF2"/>
<path d="M18.375 21.25H19.8125V22.6875H18.375V21.25Z" fill="#388BF2"/>
<path d="M24.125 18.375V19.8125H25.5625V21.25H27V18.375H25.5625H24.125Z" fill="#388BF2"/>
<path d="M25.5625 22.6875H24.125V27H27V24.125H25.5625V22.6875Z" fill="#388BF2"/>
<path d="M18.375 18.375V19.8125H22.6875V16.9375H19.8125V18.375H18.375Z" fill="#388BF2"/>
<path d="M21.25 14.0625V15.5H24.125V16.9375H27V14.0625H24.125H21.25Z" fill="#388BF2"/>
</svg>
