<svg width="36" height="36" viewBox="0 0 36 36" fill="none" xmlns="http://www.w3.org/2000/svg">
<path d="M31.5 27V28.5C31.5 30.15 30.15 31.5 28.5 31.5H7.5C5.835 31.5 4.5 30.15 4.5 28.5V7.5C4.5 5.85 5.835 4.5 7.5 4.5H28.5C30.15 4.5 31.5 5.85 31.5 7.5V9H18C16.335 9 15 10.35 15 12V24C15 25.65 16.335 27 18 27H31.5ZM18 24H33V12H18V24ZM24 20.25C22.755 20.25 21.75 19.245 21.75 18C21.75 16.755 22.755 15.75 24 15.75C25.245 15.75 26.25 16.755 26.25 18C26.25 19.245 25.245 20.25 24 20.25Z" fill="#1890FF"/>
</svg>
