<svg width="39" height="39" viewBox="0 0 39 39" fill="none" xmlns="http://www.w3.org/2000/svg">
<g clip-path="url(#clip0)">
<path d="M32.0714 3.01375C31.9414 3.01375 31.8114 2.98125 31.6976 2.91625C28.5776 1.3075 25.8801 0.625 22.6464 0.625C19.4289 0.625 16.3739 1.38875 13.5951 2.91625C13.2051 3.1275 12.7176 2.98125 12.4901 2.59125C12.2789 2.20125 12.4251 1.6975 12.8151 1.48625C15.8376 -0.155 19.1526 -1 22.6464 -1C26.1076 -1 29.1301 -0.23625 32.4451 1.47C32.8514 1.68125 32.9976 2.16875 32.7864 2.55875C32.6401 2.85125 32.3639 3.01375 32.0714 3.01375ZM8.81763 11.545C8.65513 11.545 8.49263 11.4963 8.34638 11.3988C7.97263 11.1388 7.89138 10.635 8.15138 10.2613C9.76013 7.98625 11.8076 6.19875 14.2451 4.9475C19.3476 2.315 25.8801 2.29875 30.9989 4.93125C33.4364 6.1825 35.4839 7.95375 37.0926 10.2125C37.3526 10.57 37.2714 11.09 36.8976 11.35C36.5239 11.61 36.0201 11.5287 35.7601 11.155C34.2976 9.1075 32.4451 7.49875 30.2514 6.3775C25.5876 3.98875 19.6239 3.98875 14.9764 6.39375C12.7664 7.53125 10.9139 9.15625 9.45138 11.2038C9.32138 11.4313 9.07763 11.545 8.81763 11.545ZM18.9739 31.1588C18.7626 31.1588 18.5514 31.0775 18.4051 30.915C16.9914 29.5012 16.2276 28.5912 15.1389 26.625C14.0176 24.6262 13.4326 22.1887 13.4326 19.5725C13.4326 14.7463 17.5601 10.8138 22.6301 10.8138C27.7001 10.8138 31.8276 14.7463 31.8276 19.5725C31.8276 20.0275 31.4701 20.385 31.0151 20.385C30.5601 20.385 30.2026 20.0275 30.2026 19.5725C30.2026 15.64 26.8064 12.4388 22.6301 12.4388C18.4539 12.4388 15.0576 15.64 15.0576 19.5725C15.0576 21.9125 15.5776 24.0737 16.5689 25.8288C17.6089 27.6975 18.3239 28.4937 19.5751 29.7612C19.8839 30.0863 19.8839 30.59 19.5751 30.915C19.3964 31.0775 19.1851 31.1588 18.9739 31.1588ZM30.6251 28.1525C28.6914 28.1525 26.9851 27.665 25.5876 26.7062C23.1664 25.065 21.7201 22.4 21.7201 19.5725C21.7201 19.1175 22.0776 18.76 22.5326 18.76C22.9876 18.76 23.3451 19.1175 23.3451 19.5725C23.3451 21.8638 24.5151 24.025 26.4976 25.3575C27.6514 26.1375 29.0001 26.5112 30.6251 26.5112C31.0151 26.5112 31.6651 26.4625 32.3151 26.3487C32.7539 26.2675 33.1764 26.56 33.2576 27.015C33.3389 27.4537 33.0464 27.8762 32.5914 27.9575C31.6651 28.1362 30.8526 28.1525 30.6251 28.1525ZM27.3589 31.5C27.2939 31.5 27.2126 31.4837 27.1476 31.4675C24.5639 30.7525 22.8739 29.7937 21.1026 28.055C18.8276 25.7962 17.5764 22.79 17.5764 19.5725C17.5764 16.94 19.8189 14.795 22.5814 14.795C25.3439 14.795 27.5864 16.94 27.5864 19.5725C27.5864 21.3113 29.0976 22.725 30.9664 22.725C32.8351 22.725 34.3464 21.3113 34.3464 19.5725C34.3464 13.4462 29.0651 8.47375 22.5651 8.47375C17.9501 8.47375 13.7251 11.0412 11.8239 15.0225C11.1901 16.3387 10.8651 17.8825 10.8651 19.5725C10.8651 20.84 10.9789 22.8388 11.9539 25.4388C12.1164 25.8612 11.9051 26.3325 11.4826 26.4788C11.0601 26.6413 10.5889 26.4138 10.4426 26.0075C9.64638 23.8788 9.25638 21.7663 9.25638 19.5725C9.25638 17.6225 9.63013 15.8512 10.3614 14.3075C12.5226 9.77375 17.3164 6.8325 22.5651 6.8325C29.9589 6.8325 35.9714 12.5362 35.9714 19.5562C35.9714 22.1887 33.7289 24.3337 30.9664 24.3337C28.2039 24.3337 25.9614 22.1887 25.9614 19.5562C25.9614 17.8175 24.4501 16.4037 22.5814 16.4037C20.7126 16.4037 19.2014 17.8175 19.2014 19.5562C19.2014 22.335 20.2739 24.935 22.2401 26.885C23.7839 28.4125 25.2626 29.2575 27.5539 29.8913C27.9926 30.005 28.2364 30.46 28.1226 30.8825C28.0414 31.2563 27.7001 31.5 27.3589 31.5Z" fill="#388BF2"/>
</g>
<defs>
<clipPath id="clip0">
<rect width="39" height="39" fill="white"/>
</clipPath>
</defs>
</svg>
