<svg width="3" height="6" viewBox="0 0 3 6" fill="none" xmlns="http://www.w3.org/2000/svg">
<path d="M2.31175 0.930911C2.25219 0.850231 2.17311 0.80986 2.07451 0.80986C1.98703 0.80986 1.92749 0.827577 1.89588 0.863009C1.86421 0.898441 1.7963 0.992907 1.69213 1.14645C1.58791 1.29997 1.46837 1.43873 1.33348 1.56273C1.19854 1.68672 1.01852 1.80483 0.793397 1.91701C0.64268 1.99182 0.537521 2.05281 0.477997 2.10005C0.418434 2.1473 0.388672 2.2211 0.388672 2.32148C0.388672 2.4081 0.418892 2.48437 0.479388 2.55029C0.539827 2.61626 0.609183 2.64919 0.687324 2.64919C0.851035 2.64919 1.16924 2.4573 1.64189 2.07349V4.76015C1.64189 4.91764 1.6763 5.03672 1.74516 5.1174C1.81399 5.19808 1.90516 5.23845 2.01868 5.23845C2.27359 5.23845 2.40106 5.04065 2.40106 4.64503V1.26453C2.40108 1.12283 2.37129 1.01165 2.31175 0.930911Z" fill="white"/>
</svg>
