<svg width="89" height="36" viewBox="0 0 89 36" fill="none" xmlns="http://www.w3.org/2000/svg">
<path d="M35.2502 16.95C35.7002 25.2 29.5502 33.75 19.5002 34.5C10.9502 35.1 2.70018 28.95 1.80018 19.35C0.900176 10.05 7.65017 1.95002 17.1002 1.05002C26.5502 0.300018 34.8002 7.50002 35.2502 16.95ZM20.8502 16.8C21.3002 16.65 21.3002 17.1 21.4502 17.25C23.1002 19.95 22.2002 23.55 19.3502 25.2C19.0502 25.35 18.7502 25.5 18.1502 25.8C21.3002 25.95 24.1502 23.55 25.0502 20.4C25.9502 17.25 24.6002 13.5 21.6002 11.85C18.6002 10.05 14.5502 10.5 12.1502 12.9C9.60018 15.45 9.30018 19.5 10.5002 21.15C10.3502 18 11.5502 15.9 13.9502 14.85C16.0502 13.95 18.6002 14.4 20.4002 16.2C19.8002 16.5 19.5002 15.9 19.0502 15.75C16.8002 14.7 14.2502 15.6 13.2002 17.85C12.1502 20.1 13.3502 22.8 15.4502 23.7C17.7002 24.6 20.2502 23.4 21.1502 21.15C21.9002 19.5 21.4502 18.15 20.8502 16.8ZM9.00018 17.85C9.15018 14.85 10.0502 12.15 12.3002 10.05C14.5502 7.95002 17.2502 6.90002 20.4002 7.20002C25.0502 7.50002 29.2502 11.55 29.7002 16.2C30.0002 19.65 29.1002 22.65 26.5502 24.9C24.1502 27.3 21.1502 27.9 17.7002 27.9C22.5002 29.7 28.3502 27.45 31.3502 23.1C34.5002 18.6 34.2002 12.3 30.7502 8.40002C26.7002 3.75002 20.7002 2.40002 15.4502 5.10002C10.6502 7.35002 7.80018 12.9 9.00018 17.85Z" fill="white"/>
<path d="M20.85 16.8C20.55 16.65 20.25 16.5 20.55 16.2C20.85 16.35 21.15 16.5 20.85 16.8Z" fill="white"/>
<path d="M49.9375 19.2969C49.8229 20.5104 49.375 21.4583 48.5938 22.1406C47.8125 22.8177 46.7734 23.1562 45.4766 23.1562C44.5703 23.1562 43.7708 22.9427 43.0781 22.5156C42.3906 22.0833 41.8594 21.4714 41.4844 20.6797C41.1094 19.888 40.9141 18.9688 40.8984 17.9219V16.8594C40.8984 15.7865 41.0885 14.8411 41.4688 14.0234C41.849 13.2057 42.3932 12.5755 43.1016 12.1328C43.8151 11.6901 44.638 11.4688 45.5703 11.4688C46.8255 11.4688 47.8359 11.8099 48.6016 12.4922C49.3672 13.1745 49.8125 14.138 49.9375 15.3828H47.9688C47.875 14.5651 47.6354 13.9766 47.25 13.6172C46.8698 13.2526 46.3099 13.0703 45.5703 13.0703C44.7109 13.0703 44.0495 13.3854 43.5859 14.0156C43.1276 14.6406 42.8932 15.5599 42.8828 16.7734V17.7812C42.8828 19.0104 43.1016 19.9479 43.5391 20.5938C43.9818 21.2396 44.6276 21.5625 45.4766 21.5625C46.2526 21.5625 46.8359 21.388 47.2266 21.0391C47.6172 20.6901 47.8646 20.1094 47.9688 19.2969H49.9375ZM53.6875 21.4219H58.8516V23H51.7109V11.625H53.6875V21.4219ZM67.0156 17.9219H62.3438V21.4219H67.8047V23H60.3672V11.625H67.75V13.2188H62.3438V16.3594H67.0156V17.9219ZM75.7812 20.3516H71.375L70.4531 23H68.3984L72.6953 11.625H74.4688L78.7734 23H76.7109L75.7812 20.3516ZM71.9297 18.7578H75.2266L73.5781 14.0391L71.9297 18.7578ZM84.25 18.6172H82.0469V23H80.0703V11.625H84.0703C85.3828 11.625 86.3958 11.9193 87.1094 12.5078C87.8229 13.0964 88.1797 13.9479 88.1797 15.0625C88.1797 15.8229 87.9948 16.4609 87.625 16.9766C87.2604 17.487 86.75 17.8802 86.0938 18.1562L88.6484 22.8984V23H86.5312L84.25 18.6172ZM82.0469 17.0312H84.0781C84.7448 17.0312 85.2656 16.8646 85.6406 16.5312C86.0156 16.1927 86.2031 15.7318 86.2031 15.1484C86.2031 14.5391 86.0286 14.0677 85.6797 13.7344C85.3359 13.401 84.8203 13.2292 84.1328 13.2188H82.0469V17.0312Z" fill="white"/>
</svg>
