<svg width="4" height="6" viewBox="0 0 4 6" fill="none" xmlns="http://www.w3.org/2000/svg">
<path d="M3.44157 3.43599C3.38842 3.3071 3.30917 3.18947 3.2039 3.08318C3.09857 2.9769 2.96918 2.88242 2.81566 2.79974C2.97508 2.66591 3.0976 2.52864 3.18322 2.38788C3.26884 2.24717 3.31165 2.0784 3.31165 1.88154C3.31165 1.732 3.28212 1.59222 3.22307 1.4623C3.16401 1.33238 3.07642 1.21827 2.96031 1.11983C2.84416 1.02144 2.70737 0.946157 2.54994 0.893976C2.39245 0.841856 2.21825 0.815735 2.02736 0.815735C1.80888 0.815735 1.61108 0.846733 1.43394 0.908729C1.2568 0.970726 1.10866 1.05294 0.989605 1.15524C0.870489 1.25761 0.779994 1.36538 0.717977 1.47853C0.655981 1.59174 0.624982 1.69949 0.624982 1.80181C0.624982 1.90809 0.657915 1.99326 0.723882 2.05719C0.789809 2.12119 0.862125 2.15315 0.94089 2.15315C1.00778 2.15315 1.06684 2.14134 1.11803 2.11772C1.16918 2.0941 1.20462 2.06163 1.22431 2.02029C1.25775 1.94352 1.29465 1.86187 1.33502 1.77525C1.37533 1.68866 1.41816 1.6178 1.46345 1.56267C1.50869 1.50759 1.57019 1.46331 1.64796 1.42981C1.72568 1.39638 1.8246 1.37963 1.94468 1.37963C2.12183 1.37963 2.26253 1.43425 2.36687 1.54349C2.47117 1.65273 2.52335 1.78315 2.52335 1.93467C2.52335 2.1335 2.45789 2.28601 2.32702 2.39229C2.1961 2.49857 2.04014 2.55171 1.85907 2.55171H1.73802C1.59824 2.55171 1.49297 2.58078 1.42211 2.6388C1.35124 2.69689 1.31583 2.77314 1.31583 2.86762C1.31583 2.96408 1.34536 3.03936 1.40441 3.09348C1.46347 3.14763 1.54709 3.17466 1.65536 3.17466C1.67898 3.17466 1.73213 3.17075 1.81479 3.16285C1.89746 3.15501 1.95843 3.15104 1.99783 3.15104C2.22222 3.15104 2.39736 3.2165 2.52335 3.34737C2.6493 3.47829 2.7123 3.65884 2.7123 3.88913C2.7123 4.04465 2.6754 4.18142 2.60159 4.2995C2.52778 4.41759 2.43427 4.50668 2.32112 4.5667C2.20791 4.62676 2.09032 4.65675 1.96831 4.65675C1.75573 4.65675 1.59086 4.59032 1.47379 4.45746C1.35664 4.3246 1.24692 4.1214 1.1446 3.84779C1.12881 3.80255 1.09538 3.76365 1.04422 3.73118C0.99301 3.69871 0.939882 3.68246 0.884799 3.68246C0.774552 3.68246 0.682565 3.71743 0.608758 3.78727C0.534951 3.85717 0.498047 3.94919 0.498047 4.06331C0.498047 4.15189 0.529045 4.26407 0.591041 4.39988C0.653038 4.53568 0.744561 4.66707 0.865611 4.79402C0.986662 4.92098 1.14065 5.02679 1.32766 5.1114C1.51462 5.19601 1.72623 5.23836 1.96242 5.23836C2.19464 5.23836 2.40675 5.20146 2.59865 5.12765C2.79054 5.05384 2.95636 4.95151 3.09613 4.82061C3.23587 4.68974 3.34164 4.54064 3.41351 4.37333C3.48532 4.20607 3.52128 4.03284 3.52128 3.85372C3.52128 3.70419 3.4947 3.56494 3.44157 3.43599Z" fill="white"/>
</svg>
