<svg width="32" height="32" viewBox="0 0 32 32" fill="none" xmlns="http://www.w3.org/2000/svg">
<path d="M13.4375 10.5141V8.875H14.375V7H10.625V8.875H11.5625V11.4074C10.3101 12.104 9.14106 12.9667 8.08281 13.9845L6.48663 12.3883L7.14956 11.7254L5.82375 10.3996L3.17213 13.0513L4.49794 14.3771L5.16087 13.7141L6.8035 15.3567C5.70669 16.6721 4.82981 18.131 4.18981 19.6875H1.9375V18.75H0.0625V22.5H1.9375V21.5625H3.54744C3.22812 22.7151 3.03075 23.9077 2.96406 25.125H16.3161C16.6439 23.9476 17.5727 23.0189 18.75 22.6911V9.33906C16.9046 9.44019 15.1154 9.84013 13.4375 10.5141Z" fill="#388BF2"/>
<path d="M19.6875 24.4375C18.7914 24.4375 18.0625 25.1665 18.0625 26.0625C18.0625 26.9585 18.7914 27.6875 19.6875 27.6875C20.5836 27.6875 21.3125 26.9585 21.3125 26.0625C21.3125 25.1665 20.5836 24.4375 19.6875 24.4375Z" fill="#388BF2"/>
<path d="M20.625 0V22.6911C22.1009 23.1021 23.1875 24.4574 23.1875 26.0625C23.1875 27.9924 21.6174 29.5625 19.6875 29.5625C18.0823 29.5625 16.727 28.4759 16.3161 27H0V32H32V0H20.625Z" fill="#388BF2"/>
</svg>
