<svg width="265" height="259" viewBox="0 0 265 259" fill="none" xmlns="http://www.w3.org/2000/svg">
<g clip-path="url(#clip0)">
<path d="M80.2753 31.4856C73.1269 34.5985 66.0229 38.4231 61.0057 44.4711C55.9885 50.5192 53.5021 59.1021 56.4769 66.3509C60.4729 76.0012 73.2157 81.6046 73.2601 92.0553C73.3045 99.5264 66.4225 105.263 59.4517 107.976C52.4809 110.689 44.7997 111.667 38.4505 115.669C28.9045 121.673 24.4201 133.28 22.5997 144.442C20.6906 156.005 21.4454 169.213 29.6593 177.573C39.8269 188.024 56.6101 186.823 70.9957 184.6C90.1765 181.62 109.313 178.151 128.405 174.638C170.274 166.989 212.188 159.34 254.057 151.691C258.541 150.891 263.203 149.957 266.888 147.244C274.125 141.774 274.747 130.523 270.529 122.474C266.311 114.424 258.541 108.954 250.771 104.24C243.001 99.5264 234.876 95.0348 229.06 88.0529C223.243 81.0709 220.357 70.7536 224.753 62.7933C228.482 56.0781 236.474 52.4759 239.938 45.5829C244.511 36.5553 239.227 24.9928 230.924 19.256C222.622 13.4747 118.104 14.9423 80.2753 31.4856Z" fill="#EFF8FD"/>
<path d="M31.2576 199.764C49.8939 199.764 65.0016 184.633 65.0016 165.966C65.0016 147.3 49.8939 132.168 31.2576 132.168C12.6214 132.168 -2.48633 147.3 -2.48633 165.966C-2.48633 184.633 12.6214 199.764 31.2576 199.764Z" fill="#B2DFF8"/>
<path d="M31.2577 232.762C30.8137 232.762 30.5029 232.406 30.5029 232.006V165.966C30.5029 165.522 30.8581 165.21 31.2577 165.21C31.6573 165.21 32.0125 165.566 32.0125 165.966V232.006C32.0125 232.406 31.6573 232.762 31.2577 232.762Z" fill="#CCE9FB"/>
<path d="M31.2582 184.244C31.0806 184.244 30.8586 184.155 30.7254 184.022L21.2683 174.549C20.9575 174.238 20.9575 173.749 21.2683 173.437C21.5791 173.126 22.0675 173.126 22.3783 173.437L31.8354 182.91C32.1462 183.221 32.1462 183.71 31.8354 184.022C31.6578 184.155 31.4358 184.244 31.2582 184.244Z" fill="#CCE9FB"/>
<path d="M31.2582 193.049C31.0806 193.049 30.8586 192.96 30.7254 192.827L21.2683 183.355C20.9575 183.043 20.9575 182.554 21.2683 182.243C21.5791 181.931 22.0675 181.931 22.3783 182.243L31.8354 191.715C32.1462 192.026 32.1462 192.516 31.8354 192.827C31.6578 192.96 31.4358 193.049 31.2582 193.049Z" fill="#CCE9FB"/>
<path d="M268.264 142.708C277.943 147.956 284.47 158.184 284.47 169.969C284.47 187.09 270.617 200.965 253.524 200.965C240.337 200.965 229.059 192.694 224.619 181.087L268.264 142.708Z" fill="#CCE9FB"/>
<path d="M220.401 181.309C247.473 181.309 269.419 159.328 269.419 132.213C269.419 105.098 247.473 83.1166 220.401 83.1166C193.33 83.1166 171.384 105.098 171.384 132.213C171.384 159.328 193.33 181.309 220.401 181.309Z" fill="#B2DFF8"/>
<path d="M220.4 229.204C219.778 229.204 219.29 228.715 219.29 228.093V132.213C219.29 131.59 219.778 131.101 220.4 131.101C221.022 131.101 221.51 131.59 221.51 132.213V228.093C221.554 228.671 221.022 229.204 220.4 229.204Z" fill="#CCE9FB"/>
<path d="M220.401 158.718C220.134 158.718 219.823 158.629 219.601 158.406L205.882 144.665C205.438 144.22 205.438 143.508 205.882 143.064C206.326 142.619 207.036 142.619 207.48 143.064L221.2 156.805C221.644 157.25 221.644 157.962 221.2 158.406C220.978 158.629 220.711 158.718 220.401 158.718Z" fill="#CCE9FB"/>
<path d="M220.401 171.481C220.135 171.481 219.824 171.392 219.602 171.169L205.927 157.428C205.483 156.983 205.483 156.272 205.927 155.827C206.371 155.382 207.081 155.382 207.525 155.827L221.245 169.569C221.689 170.013 221.689 170.725 221.245 171.169C220.978 171.392 220.712 171.481 220.401 171.481Z" fill="#CCE9FB"/>
<path d="M253.345 229.16C252.813 229.071 252.413 228.537 252.413 228.004V177.751C252.413 177.129 252.857 176.595 253.479 176.55C254.145 176.506 254.677 177.04 254.677 177.662V228.004C254.677 228.76 254.056 229.293 253.345 229.16Z" fill="#CCE9FB"/>
<path d="M253.568 185.044C253.301 185.044 252.991 184.956 252.769 184.733C252.325 184.288 252.325 183.577 252.769 183.132L262.67 173.215C263.114 172.77 263.824 172.77 264.268 173.215C264.712 173.66 264.712 174.371 264.268 174.816L254.367 184.733C254.101 184.956 253.834 185.044 253.568 185.044Z" fill="#CCE9FB"/>
<path d="M253.568 194.25C253.301 194.25 252.991 194.161 252.769 193.939C252.325 193.494 252.325 192.782 252.769 192.338L262.67 182.421C263.114 181.976 263.824 181.976 264.268 182.421C264.712 182.865 264.712 183.577 264.268 184.022L254.367 193.939C254.101 194.161 253.834 194.25 253.568 194.25Z" fill="#CCE9FB"/>
<path d="M273.148 259H7.37022C5.32782 259 3.64062 257.31 3.64062 255.264V232.05C3.64062 230.005 5.32782 228.315 7.37022 228.315H273.148C275.191 228.315 276.878 230.005 276.878 232.05V255.264C276.878 257.31 275.191 259 273.148 259Z" fill="#F1F1F1"/>
<path d="M161.083 243.524C218.855 243.524 265.689 242.29 265.689 240.767C265.689 239.244 218.855 238.01 161.083 238.01C103.31 238.01 56.4766 239.244 56.4766 240.767C56.4766 242.29 103.31 243.524 161.083 243.524Z" fill="#F1F1F1"/>
<path d="M224.752 46.0721C237.454 46.0721 247.751 35.7585 247.751 23.0361C247.751 10.3136 237.454 0 224.752 0C212.05 0 201.753 10.3136 201.753 23.0361C201.753 35.7585 212.05 46.0721 224.752 46.0721Z" fill="#FABB56"/>
<path d="M109.535 70.0421C109.535 70.0421 107.714 71.2872 108.647 73.3774C109.535 75.4675 113.531 81.6935 118.903 81.4711C119.125 81.4711 112.154 70.0421 112.154 70.0421H109.535Z" fill="#01384F"/>
<path d="M101.321 184.6C101.321 184.6 94.6169 178.596 92.4413 179.663C89.8217 180.998 74.7702 195.718 75.3918 202.655C75.6138 205.501 78.9438 203.055 84.849 196.963C90.7541 190.826 98.1689 193.449 98.1689 193.449L101.321 184.6Z" fill="#01384F"/>
<path d="M117.615 194.739L109.534 189.892C109.534 189.892 88.533 209.593 91.8186 212.261C94.305 214.262 95.7702 212.483 101.675 206.346C107.581 200.209 115.04 203.767 115.04 203.767L117.615 194.739Z" fill="#01384F"/>
<path d="M167.122 129.856L168.632 151.469L134.888 142.663L167.122 129.856Z" fill="#F3A582"/>
<path d="M134.887 143.419C134.887 143.419 164.369 145.287 168.32 143.953C168.32 143.953 174.092 200.698 163.836 206.791C153.58 212.928 130.536 203.945 130.536 203.945L136.752 191.715L150.161 190.826V168.99L149.184 169.213L134.887 143.419Z" fill="#2A94F4"/>
<path d="M97.9457 182.109C97.9457 182.109 90.5309 185.178 92.9285 192.605C92.9285 192.605 118.236 212.483 130.58 207.903C137.506 205.323 144.921 185.712 150.071 168.946L168.32 143.953C168.32 143.953 159.706 144.398 156.82 144.353C151.314 144.353 134.886 143.375 134.886 143.375C134.886 143.375 126.273 188.424 123.209 189.492C120.19 190.648 97.9457 182.109 97.9457 182.109Z" fill="#2A94F4"/>
<path d="M141.77 86.9411C141.77 86.9411 159.441 70.3089 162.504 65.9507C165.568 61.5925 172.095 46.9171 180.175 40.8245L176.268 32.4639C176.268 32.4639 178.666 31.1743 180.175 34.643C180.175 34.643 185.859 23.2584 187.146 23.4808C188.478 23.7031 184.527 32.2416 184.527 32.2416C184.527 32.2416 189.988 24.3702 191.497 24.5925C193.007 24.8149 187.546 33.4423 187.546 33.4423C187.546 33.4423 193.673 26.3269 194.517 27.2163C195.405 28.1058 189.721 33.4423 189.721 33.4423C189.721 33.4423 195.849 29.9291 196.47 31.0853C197.136 32.2416 190.343 35.3101 190.343 35.3101C190.343 35.3101 189.677 40.3353 185.548 42.5144C185.548 42.5144 177.334 64.75 169.919 71.9543L146.076 96.7692L141.77 86.9411Z" fill="#FACBB6"/>
<path d="M120.679 95.524C120.679 95.524 103.94 113.09 99.5447 116.114C95.1491 119.138 80.4527 125.542 74.2811 133.591L66.0227 129.589C66.0227 129.589 64.6907 131.99 68.1539 133.547C68.1539 133.547 56.7431 139.106 56.9651 140.44C57.1871 141.774 65.7119 137.905 65.7119 137.905C65.7119 137.905 57.8087 143.286 57.9863 144.843C58.2083 146.355 66.8663 140.974 66.8663 140.974C66.8663 140.974 59.7179 147.022 60.6059 147.911C61.4495 148.8 66.8663 143.153 66.8663 143.153C66.8663 143.153 63.3143 149.245 64.4687 149.912C65.6231 150.579 68.7311 143.82 68.7311 143.82C68.7311 143.82 73.7483 143.197 75.9683 139.061C75.9683 139.061 96.9695 130.701 104.251 123.318L130.403 104.774L120.679 95.524Z" fill="#FACBB6"/>
<path d="M126.939 88.5421L118.459 96.8582L120.59 106.242C120.59 106.242 128.937 126.298 130.181 131.19C132.134 138.794 128.982 150.401 128.982 150.401C128.982 150.401 143.145 149.245 156.021 148.8C168.897 148.356 173.115 144.22 173.115 144.22C173.115 144.22 161.971 106.998 154.245 96.5469C146.52 86.1406 143.723 82.8942 143.723 82.8942L132.356 85.3846L126.939 88.5421Z" fill="#00519D"/>
<path d="M151.804 95.3017L160.64 89.6538C160.64 89.6538 161.972 83.6057 151.36 76.4459L138.884 84.2728L151.804 95.3017Z" fill="#00519D"/>
<path d="M120.279 96.1911C115.439 96.8582 106.604 109.177 105.627 109.132C105.627 109.132 111.843 119.316 116.771 119.627C116.771 119.627 138.439 93.6118 120.279 96.1911Z" fill="#00519D"/>
<path d="M137.373 88.1863C137.373 88.1863 130.358 82.9387 130.58 80.8041C130.624 80.2704 131.601 79.4255 131.867 78.6695C133.244 74.5781 126.673 63.994 122.632 61.7704C119.435 60.0361 120.856 59.8582 114.152 63.8606C107.447 67.863 111.266 74.7115 114.241 78.2692C117.082 81.649 120.279 83.0721 123.209 83.3389L127.339 92.5445L137.373 88.1863Z" fill="#FACBB6"/>
<path d="M124.676 95.4795C123.344 92.1887 125.874 88.0973 130.314 86.274C134.754 84.4507 139.416 85.6514 140.748 88.8978C142.08 92.1442 137.596 97.0805 135.11 98.1033C132.623 99.1706 126.008 98.7704 124.676 95.4795Z" fill="#FACBB6"/>
<path d="M114.241 78.3137C114.241 78.3137 111.977 78.1803 111.711 79.6923C111.444 81.2043 115.884 81.2043 117.527 80.0925L114.241 78.3137Z" fill="#FACBB6"/>
<path d="M115.351 79.6923C114.907 76.9351 111.977 74.8894 112.154 72.2211C113.575 72.2211 114.463 70.4868 113.842 69.0192C113.575 68.4411 113.176 67.9519 112.909 67.3738C112.643 66.7956 112.554 66.0396 112.998 65.7283C113.176 65.5949 113.442 65.5505 113.708 65.506C115.795 65.2836 119.347 65.9062 121.256 65.1947C123.077 64.5276 125.03 63.1935 124.853 60.9699C124.675 59.0132 122.988 57.4567 121.39 56.256C120.502 55.5889 117.882 53.7656 116.95 53.9435C115.44 54.2103 115.085 56.167 114.996 57.857C113.975 56.8786 112.421 57.012 111.533 57.8125C110.645 58.613 110.201 59.9026 109.801 61.1478C109.402 62.393 109.002 63.6827 108.114 64.4831C107.27 65.2392 105.983 65.8173 106.116 67.1514C106.338 68.7079 108.336 69.2416 109.268 70.5757C109.046 70.2644 108.824 72.3101 108.958 72.6658C109.357 73.7331 110.334 74.4447 111.089 75.2452C112.598 76.9351 113.353 78.6694 115.351 79.6923Z" fill="#01384F"/>
<path d="M123.21 83.3389C123.21 83.3389 126.54 83.3389 128.316 82.2271C128.316 82.2271 126.806 84.0949 123.743 84.5841L123.21 83.3389Z" fill="#F8BBA9"/>
</g>
<defs>
<clipPath id="clip0">
<rect width="264.313" height="259" fill="white"/>
</clipPath>
</defs>
</svg>
