<svg width="36" height="36" viewBox="0 0 36 36" fill="none" xmlns="http://www.w3.org/2000/svg">
<path d="M35.2502 16.95C35.7002 25.2 29.5502 33.75 19.5002 34.5C10.9502 35.1 2.70018 28.95 1.80018 19.35C0.900176 10.05 7.65017 1.95002 17.1002 1.05002C26.5502 0.300018 34.8002 7.50002 35.2502 16.95ZM20.8502 16.8C21.3002 16.65 21.3002 17.1 21.4502 17.25C23.1002 19.95 22.2002 23.55 19.3502 25.2C19.0502 25.35 18.7502 25.5 18.1502 25.8C21.3002 25.95 24.1502 23.55 25.0502 20.4C25.9502 17.25 24.6002 13.5 21.6002 11.85C18.6002 10.05 14.5502 10.5 12.1502 12.9C9.60018 15.45 9.30018 19.5 10.5002 21.15C10.3502 18 11.5502 15.9 13.9502 14.85C16.0502 13.95 18.6002 14.4 20.4002 16.2C19.8002 16.5 19.5002 15.9 19.0502 15.75C16.8002 14.7 14.2502 15.6 13.2002 17.85C12.1502 20.1 13.3502 22.8 15.4502 23.7C17.7002 24.6 20.2502 23.4 21.1502 21.15C21.9002 19.5 21.4502 18.15 20.8502 16.8ZM9.00018 17.85C9.15018 14.85 10.0502 12.15 12.3002 10.05C14.5502 7.95002 17.2502 6.90002 20.4002 7.20002C25.0502 7.50002 29.2502 11.55 29.7002 16.2C30.0002 19.65 29.1002 22.65 26.5502 24.9C24.1502 27.3 21.1502 27.9 17.7002 27.9C22.5002 29.7 28.3502 27.45 31.3502 23.1C34.5002 18.6 34.2002 12.3 30.7502 8.40002C26.7002 3.75002 20.7002 2.40002 15.4502 5.10002C10.6502 7.35002 7.80018 12.9 9.00018 17.85Z" fill="white"/>
<path d="M20.85 16.8C20.55 16.65 20.25 16.5 20.55 16.2C20.85 16.35 21.15 16.5 20.85 16.8Z" fill="white"/>
</svg>
