<svg width="44" height="44" viewBox="0 0 44 44" fill="none" xmlns="http://www.w3.org/2000/svg">
<path fill-rule="evenodd" clip-rule="evenodd" d="M30.9411 0.897496C31.3256 0.854371 31.7245 0.839996 32.1198 0.839996C38.2077 0.839996 43.1598 5.79218 43.1598 11.88C43.1598 12.3436 43.1275 12.8 43.0736 13.2312C43.0633 13.3196 43.0448 13.3986 43.0261 13.4783C43.0122 13.5379 42.9981 13.5979 42.9873 13.6625C42.973 13.745 42.9601 13.8281 42.9472 13.9112C42.9178 14.0997 42.8885 14.2879 42.8436 14.4675C42.816 14.5714 42.7797 14.6728 42.7435 14.774C42.7183 14.8442 42.6932 14.9143 42.6711 14.985C42.6504 15.0514 42.6313 15.1163 42.6125 15.1802C42.5693 15.3272 42.5274 15.4697 42.4698 15.6175C42.4016 15.7972 42.3189 15.9877 42.2398 16.1637C42.226 16.1956 42.2122 16.2277 42.1983 16.2599C42.1292 16.4201 42.0589 16.5832 41.9811 16.7387C41.8912 16.922 41.7942 17.1053 41.6936 17.285C41.6797 17.3107 41.6657 17.3365 41.6518 17.3624C41.5721 17.5099 41.4917 17.6588 41.4061 17.8025C41.3405 17.9146 41.2649 18.0193 41.1889 18.1246C41.1359 18.1981 41.0826 18.2719 41.0323 18.3487C40.9903 18.4141 40.9497 18.4808 40.9089 18.5476C40.8555 18.6352 40.8019 18.7231 40.7448 18.8087C40.6652 18.9251 40.5833 19.038 40.501 19.1513C40.4385 19.2375 40.3757 19.324 40.3136 19.4125C40.2687 19.4736 40.2264 19.5365 40.1842 19.5994C40.142 19.6623 40.0998 19.7252 40.0548 19.7862C39.8644 20.0486 39.6775 20.3002 39.4798 20.5625C39.4238 20.6378 39.3691 20.7153 39.3143 20.7929C39.2462 20.8895 39.1778 20.9864 39.1061 21.08L39.0396 21.168C38.3006 22.1449 37.517 23.1809 36.7773 24.3287C35.135 26.3916 33.6184 28.8173 32.7811 32.0337C32.7426 32.1824 32.7159 32.3215 32.6915 32.4482C32.6341 32.747 32.5901 32.9763 32.4361 33.0975C32.3355 33.1155 32.2384 33.1262 32.1198 33.1262C32.0012 33.1262 31.9042 33.1191 31.8036 33.0975C31.6496 32.9763 31.6056 32.747 31.5481 32.4482C31.5238 32.3215 31.4971 32.1824 31.4586 32.0337C30.6212 28.8173 29.1047 26.3916 27.4623 24.3287C26.75 23.2233 25.9968 22.2246 25.2821 21.277C25.2324 21.2111 25.1829 21.1454 25.1336 21.08C23.0456 18.3128 21.0798 15.6966 21.0798 11.88C21.0798 9.05171 22.1723 6.475 23.9261 4.52C24.1741 4.24328 24.4256 3.96656 24.7023 3.715C24.7059 3.7114 24.7113 3.7132 24.7167 3.715C24.7221 3.71679 24.7275 3.71859 24.7311 3.715C24.997 3.47422 25.2773 3.24062 25.5648 3.025C25.5756 3.01601 25.5846 3.00613 25.5936 2.99624C25.6026 2.98636 25.6116 2.97648 25.6223 2.9675C25.8919 2.76984 26.1686 2.59375 26.4561 2.42125C26.4777 2.40867 26.5028 2.39339 26.528 2.37812C26.5531 2.36285 26.5783 2.34757 26.5998 2.335C26.8694 2.17687 27.1497 2.04031 27.4336 1.90375C27.4659 1.88937 27.4929 1.875 27.5198 1.86062C27.5468 1.84625 27.5737 1.83187 27.6061 1.8175C27.872 1.69531 28.1631 1.57312 28.4398 1.4725C28.4973 1.45093 28.5548 1.43257 28.6123 1.4142C28.6411 1.40501 28.6698 1.39583 28.6986 1.38625C28.9609 1.3 29.2341 1.22093 29.5036 1.15625C29.5675 1.14083 29.6219 1.13081 29.6785 1.12039C29.7142 1.11382 29.7508 1.10709 29.7911 1.09875C30.0642 1.04125 30.3445 0.990934 30.6248 0.954996C30.672 0.948488 30.7199 0.938298 30.7679 0.928092C30.8259 0.915755 30.8841 0.903397 30.9411 0.897496ZM0.839844 8.51625C0.839844 6.31687 2.63672 4.52 4.83609 4.52H21.5686C20.1059 6.60796 19.2398 9.14515 19.2398 11.88C19.2398 14.8089 20.2137 17.0981 21.5111 19.1537L2.67984 38.0137V39.1637C2.67984 40.3461 3.65375 41.32 4.83609 41.32H5.98609L24.2998 23.035L24.3502 23.1028C24.866 23.7961 25.3913 24.5023 25.9098 25.3062L26.0248 25.4787C26.8011 26.4527 27.4408 27.4014 27.9798 28.3537L24.7023 25.0475L21.3961 28.4112L34.3336 41.32H35.4836C36.6659 41.32 37.6398 40.3461 37.6398 39.1637V38.0137L33.8736 34.2475C34.3012 33.7516 34.4342 33.155 34.5061 32.7812C34.5114 32.7537 34.5161 32.7268 34.5207 32.6998C34.532 32.6351 34.5433 32.5698 34.5636 32.4937C35.2177 29.9817 36.3497 27.8219 38.2148 25.4787L38.3298 25.3062C38.7072 24.7205 39.0953 24.167 39.4798 23.6387V39.48H39.4511C39.3073 41.3308 37.895 42.8222 36.0873 43.1025C35.8861 43.1348 35.692 43.16 35.4836 43.16H4.83609C2.84516 43.16 1.19203 41.6758 0.897344 39.7675C0.865 39.5662 0.839844 39.3722 0.839844 39.1637V8.51625ZM4.51985 13.8437V13.8263C4.51985 13.8292 4.51984 13.8321 4.51984 13.835C4.51984 13.8379 4.51985 13.8408 4.51985 13.8437ZM34.8798 11.88C34.8798 10.3562 33.6436 9.12 32.1198 9.12C30.5961 9.12 29.3598 10.3562 29.3598 11.88C29.3598 13.4037 30.5961 14.64 32.1198 14.64C33.6436 14.64 34.8798 13.4037 34.8798 11.88Z" fill="#388BF2"/>
</svg>
