<svg width="36" height="36" viewBox="0 0 36 36" fill="none" xmlns="http://www.w3.org/2000/svg">
<path d="M30 12H25.5V6H4.5C2.85 6 1.5 7.35 1.5 9V25.5H4.5C4.5 27.99 6.51 30 9 30C11.49 30 13.5 27.99 13.5 25.5H22.5C22.5 27.99 24.51 30 27 30C29.49 30 31.5 27.99 31.5 25.5H34.5V18L30 12ZM9 27.75C7.755 27.75 6.75 26.745 6.75 25.5C6.75 24.255 7.755 23.25 9 23.25C10.245 23.25 11.25 24.255 11.25 25.5C11.25 26.745 10.245 27.75 9 27.75ZM29.25 14.25L32.19 18H25.5V14.25H29.25ZM27 27.75C25.755 27.75 24.75 26.745 24.75 25.5C24.75 24.255 25.755 23.25 27 23.25C28.245 23.25 29.25 24.255 29.25 25.5C29.25 26.745 28.245 27.75 27 27.75Z" fill="#1890FF"/>
</svg>
