<svg width="4" height="6" viewBox="0 0 4 6" fill="none" xmlns="http://www.w3.org/2000/svg">
<path d="M3.44519 4.56232C3.36447 4.49936 3.24739 4.46783 3.09386 4.46783H1.55271C1.60189 4.39306 1.65014 4.32907 1.69738 4.27594C1.80759 4.14211 2.01079 3.95413 2.30705 3.71203C2.60324 3.46993 2.81435 3.29232 2.94034 3.17913C3.06628 3.06598 3.18981 2.9095 3.31086 2.7097C3.43191 2.50995 3.49244 2.28802 3.49244 2.04395C3.49244 1.88849 3.46337 1.73838 3.40535 1.59371C3.34726 1.44904 3.26608 1.32162 3.16178 1.21137C3.05744 1.10116 2.93638 1.01458 2.79863 0.951554C2.58605 0.857068 2.3292 0.809845 2.02807 0.809845C1.77808 0.809845 1.56011 0.846749 1.37412 0.920556C1.18813 0.994363 1.03459 1.09133 0.913542 1.21137C0.792492 1.33145 0.701432 1.46528 0.640443 1.6129C0.579414 1.76051 0.54892 1.90222 0.54892 2.03804C0.54892 2.15022 0.58139 2.23881 0.646349 2.30376C0.711308 2.36872 0.792955 2.40119 0.891392 2.40119C1.00357 2.40119 1.08869 2.36576 1.14677 2.29492C1.2048 2.22405 1.25698 2.12271 1.30326 1.99082C1.34947 1.85897 1.38246 1.77825 1.40216 1.74872C1.54977 1.5224 1.75247 1.40919 2.01035 1.40919C2.13237 1.40919 2.24507 1.43678 2.34839 1.49187C2.45172 1.54699 2.53337 1.62426 2.59343 1.72363C2.65345 1.82305 2.68348 1.93574 2.68348 2.06166C2.68348 2.17782 2.65543 2.29639 2.59933 2.41742C2.54324 2.53845 2.46154 2.65656 2.35429 2.7717C2.24699 2.88685 2.11266 3.00153 1.9513 3.11564C1.86074 3.17667 1.71016 3.30413 1.49958 3.49798C1.28895 3.69187 1.05277 3.9246 0.79102 4.19623C0.728016 4.26316 0.66997 4.35519 0.616822 4.47227C0.563674 4.58941 0.537109 4.68337 0.537109 4.75421C0.537109 4.86446 0.578447 4.96042 0.661102 5.04207C0.743777 5.12378 0.858902 5.16459 1.00654 5.16459H3.17949C3.30939 5.16459 3.40632 5.13115 3.47031 5.06422C3.53424 4.99732 3.56626 4.91564 3.56626 4.81917C3.56624 4.71096 3.52587 4.62534 3.44519 4.56232Z" fill="white"/>
</svg>
