<svg width="258" height="239" viewBox="0 0 258 239" fill="none" xmlns="http://www.w3.org/2000/svg">
<path d="M217.202 227.413C225.492 222.923 233.814 218.119 240.214 211.195C246.614 204.272 250.916 194.827 249.595 185.491C248.38 176.907 242.683 169.504 241.17 160.967C238.574 146.317 248.605 132.562 250.946 117.869C252.706 106.82 249.862 95.1093 243.231 86.0978C237.186 77.883 228.287 71.9898 222.83 63.3727C215.477 51.7609 215.097 36.3387 206.117 25.9335C199.613 18.3966 189.735 14.8548 180.294 11.6958C163.562 6.09714 146.486 0.697087 128.855 0.0572967C111.223 -0.582493 92.6983 4.09153 79.9676 16.3069C76.0107 20.1035 72.638 24.6453 70.9316 29.8569C66.8971 42.1805 72.673 55.2564 76.2943 67.7075C77.0028 70.1433 77.634 72.7135 77.0988 75.1932C76.5716 77.6355 74.9724 79.6986 73.2872 81.5435C65.4346 90.1391 54.9831 95.8139 44.8978 101.631C34.8125 107.447 24.6216 113.809 17.8238 123.261C11.026 132.713 8.35843 146.04 14.2663 156.073C16.5583 159.965 20.055 163.316 20.9836 167.736C22.6251 175.55 15.8145 182.23 11.8093 189.137C5.15948 200.606 6.38678 216.133 14.7558 226.414C23.1248 236.696 38.0804 241.048 50.6593 236.863L217.202 227.413Z" fill="#F0FAFF"/>
<path d="M35.1122 225.944C36.3667 203.363 19.6401 172.904 2.4957 171.407C-3.77676 184.546 7.04427 219.307 23.0145 225.669C38.9846 232.03 35.1122 225.944 35.1122 225.944Z" fill="#2A94F4"/>
<path d="M25.211 220.683C25.1294 218.987 24.8033 217.194 24.4105 215.429C24.0124 213.657 23.5321 211.889 23.0128 210.131C21.9715 206.612 20.767 203.127 19.4652 199.678C18.1602 196.229 16.7536 192.815 15.2145 189.46C14.4407 187.784 13.6331 186.124 12.7573 184.5C12.3125 183.692 11.8627 182.885 11.3646 182.109C10.8698 181.332 10.3531 180.56 9.69922 179.903C10.3915 180.521 10.9574 181.267 11.4997 182.017C12.0462 182.768 12.5451 183.551 13.0398 184.336C14.0149 185.914 14.9236 187.533 15.7994 189.169C17.5427 192.445 19.1565 195.789 20.6731 199.179C22.1869 202.572 23.6071 206.009 24.8749 209.52C25.5079 211.276 26.1043 213.049 26.6257 214.861C27.14 216.679 27.6024 218.516 27.8185 220.51L25.211 220.683Z" fill="#CCE9FF"/>
<path d="M43.2922 221.373C43.2922 221.373 42.9681 222.267 41.5699 222.547C41.2876 222.604 40.9609 222.636 40.5846 222.628C39.0374 222.604 36.6408 221.943 32.9636 219.779C23.9757 214.484 23.8058 192.941 28.7845 185.644C38.9276 188.129 46.1357 207.948 43.2922 221.373Z" fill="#0E538C"/>
<path d="M41.57 222.547C41.2877 222.604 40.961 222.636 40.5847 222.628C40.5795 222.568 40.5716 222.51 40.5664 222.45C40.2371 219.439 39.7431 216.437 39.142 213.457C38.5435 210.475 37.8326 207.514 36.9859 204.592C36.5599 203.131 36.0973 201.678 35.5641 200.254C35.4256 199.901 35.2949 199.543 35.1459 199.193L34.9264 198.665L34.6912 198.147C34.3645 197.462 34.0247 196.775 33.5674 196.163C34.0457 196.759 34.4116 197.434 34.7644 198.11L35.0205 198.623L35.2583 199.143C35.4204 199.49 35.5641 199.843 35.7157 200.193C36.3011 201.605 36.8186 203.045 37.2969 204.493C38.2508 207.396 39.0715 210.342 39.7823 213.316C40.4932 216.29 41.0943 219.291 41.5386 222.327C41.5491 222.401 41.5595 222.474 41.57 222.547Z" fill="#0E538C"/>
<path d="M84.5377 221.528C84.5377 221.528 84.2536 222.312 83.0282 222.557C82.7807 222.607 82.4945 222.635 82.1647 222.628C80.8085 222.607 78.708 222.028 75.485 220.131C67.6073 215.49 67.4584 196.608 71.8222 190.212C80.7123 192.391 87.03 209.761 84.5377 221.528Z" fill="#51AEF4"/>
<path opacity="0.5" d="M83.0276 222.557C82.7801 222.608 82.4939 222.635 82.1641 222.628C82.1596 222.575 82.1526 222.525 82.1481 222.472C81.8596 219.834 81.4265 217.201 80.8997 214.59C80.3751 211.976 79.7521 209.381 79.0098 206.82C78.6363 205.54 78.231 204.266 77.7637 203.017C77.6422 202.708 77.5277 202.394 77.3973 202.087L77.2049 201.625L76.9987 201.171C76.7123 200.571 76.4146 199.968 76.0137 199.432C76.4329 199.955 76.7536 200.546 77.0627 201.139L77.2872 201.588L77.4958 202.044C77.6377 202.349 77.7639 202.658 77.8967 202.965C78.4097 204.202 78.8635 205.464 79.2827 206.733C80.1187 209.278 80.838 211.859 81.461 214.466C82.0841 217.073 82.611 219.703 83.0004 222.364C83.0093 222.429 83.0184 222.493 83.0276 222.557Z" fill="#51AEF4"/>
<path d="M223.405 225.944C222.151 203.363 238.877 172.904 256.022 171.407C262.294 184.546 251.473 219.307 235.503 225.669C219.533 232.03 223.405 225.944 223.405 225.944Z" fill="#0E538C"/>
<path d="M233.308 220.683C233.39 218.987 233.716 217.194 234.108 215.429C234.507 213.657 234.987 211.889 235.506 210.131C236.547 206.612 237.752 203.127 239.054 199.678C240.359 196.229 241.765 192.815 243.304 189.46C244.078 187.784 244.886 186.124 245.761 184.5C246.206 183.692 246.656 182.885 247.154 182.109C247.649 181.332 248.166 180.56 248.819 179.903C248.127 180.521 247.561 181.267 247.019 182.017C246.473 182.768 245.974 183.551 245.479 184.336C244.504 185.914 243.595 187.533 242.719 189.169C240.976 192.445 239.362 195.789 237.846 199.179C236.332 202.572 234.912 206.009 233.644 209.52C233.011 211.276 232.414 213.049 231.893 214.861C231.379 216.679 230.916 218.516 230.7 220.51L233.308 220.683Z" fill="#0E538C"/>
<path d="M190.137 226.787C190.988 211.454 179.631 190.771 167.989 189.755C163.73 198.677 171.078 222.28 181.922 226.6C192.766 230.919 190.137 226.787 190.137 226.787Z" fill="#0E538C"/>
<path d="M183.411 223.214C183.356 222.063 183.134 220.845 182.867 219.647C182.597 218.444 182.271 217.244 181.918 216.049C181.211 213.66 180.393 211.293 179.509 208.951C178.623 206.609 177.668 204.291 176.623 202.013C176.098 200.876 175.549 199.748 174.954 198.645C174.652 198.097 174.347 197.549 174.009 197.022C173.673 196.494 173.322 195.97 172.878 195.524C173.348 195.944 173.732 196.45 174.101 196.959C174.472 197.469 174.81 198.001 175.146 198.534C175.808 199.606 176.425 200.705 177.02 201.815C178.204 204.04 179.3 206.311 180.33 208.613C181.358 210.916 182.322 213.25 183.183 215.634C183.613 216.826 184.018 218.031 184.371 219.261C184.721 220.495 185.034 221.742 185.181 223.097L183.411 223.214Z" fill="#0E538C"/>
<path d="M185.275 221.721C185.659 214.341 192.16 205.031 197.782 205.146C199.36 209.634 194.627 220.549 189.215 222.056C183.804 223.563 185.275 221.721 185.275 221.721Z" fill="#51AEF4"/>
<path d="M188.677 220.359C188.763 219.811 188.931 219.24 189.121 218.68C189.312 218.119 189.53 217.561 189.761 217.008C190.222 215.901 190.735 214.811 191.279 213.736C191.824 212.662 192.4 211.601 193.018 210.565C193.328 210.048 193.649 209.537 193.99 209.04C194.163 208.793 194.337 208.547 194.526 208.312C194.714 208.077 194.909 207.844 195.145 207.654C194.898 207.83 194.688 208.053 194.486 208.278C194.282 208.502 194.092 208.739 193.904 208.977C193.532 209.456 193.18 209.95 192.838 210.45C192.157 211.454 191.516 212.484 190.904 213.532C190.294 214.581 189.712 215.648 189.177 216.744C188.91 217.293 188.654 217.848 188.421 218.419C188.191 218.991 187.976 219.572 187.836 220.212L188.677 220.359Z" fill="#2797E2"/>
<path d="M78.7705 221.721C79.1539 214.341 85.6548 205.031 91.2772 205.146C92.855 209.634 88.1219 220.549 82.7104 222.056C77.2991 223.563 78.7705 221.721 78.7705 221.721Z" fill="#0E538C"/>
<path d="M82.1721 220.359C82.2581 219.811 82.4266 219.24 82.6161 218.68C82.8074 218.119 83.0254 217.561 83.2559 217.008C83.7175 215.901 84.2308 214.811 84.7746 213.736C85.3193 212.662 85.8958 211.601 86.5134 210.565C86.8234 210.048 87.144 209.537 87.4854 209.04C87.6581 208.793 87.8324 208.547 88.0217 208.312C88.2096 208.077 88.4045 207.844 88.64 207.654C88.3936 207.83 88.1834 208.053 87.9809 208.278C87.777 208.502 87.5876 208.739 87.3994 208.977C87.0272 209.456 86.6754 209.95 86.3336 210.45C85.6525 211.454 85.0112 212.484 84.3996 213.532C83.7891 214.581 83.2073 215.648 82.6723 216.744C82.4052 217.293 82.1494 217.848 81.9165 218.419C81.6857 218.991 81.4711 219.572 81.3311 220.212L82.1721 220.359Z" fill="#0E538C"/>
<path d="M215.227 221.373C215.227 221.373 215.551 222.267 216.949 222.547C217.231 222.604 217.558 222.636 217.934 222.628C219.481 222.604 221.878 221.943 225.555 219.779C234.543 214.484 234.713 192.941 229.734 185.644C219.591 188.129 212.383 207.948 215.227 221.373Z" fill="#2A94F4"/>
<path d="M216.949 222.547C217.231 222.604 217.558 222.636 217.935 222.628C217.94 222.568 217.948 222.51 217.953 222.45C218.282 219.439 218.776 216.437 219.377 213.457C219.976 210.475 220.687 207.514 221.533 204.592C221.959 203.131 222.422 201.678 222.955 200.254C223.094 199.901 223.224 199.543 223.373 199.193L223.593 198.665L223.828 198.147C224.155 197.462 224.494 196.775 224.952 196.163C224.474 196.759 224.108 197.434 223.755 198.11L223.499 198.623L223.261 199.143C223.099 199.49 222.955 199.843 222.804 200.193C222.218 201.605 221.701 203.045 221.222 204.493C220.268 207.396 219.448 210.342 218.737 213.316C218.026 216.29 217.425 219.291 216.981 222.327C216.97 222.401 216.96 222.474 216.949 222.547Z" fill="#2A94F4"/>
<path d="M134.854 234.9C179.129 234.9 215.021 233.379 215.021 231.502C215.021 229.625 179.129 228.103 134.854 228.103C90.5786 228.103 54.6865 229.625 54.6865 231.502C54.6865 233.379 90.5786 234.9 134.854 234.9Z" fill="#F2F2F2"/>
<path d="M107.226 62.0532L139.171 41.3193L142.577 31.4794L142.367 42.4554L115.338 65.9768L107.226 62.0532Z" fill="#DF9481"/>
<path d="M95.0674 69.3473L115.294 56.8128L119.385 71.8152L96.5409 86.8179L95.0674 69.3473Z" fill="#388BF2"/>
<path opacity="0.2" d="M95.0674 69.3473L115.294 56.8128L119.385 71.8152L96.5409 86.8179L95.0674 69.3473Z" fill="#388BF2"/>
<path d="M53.8789 162.905L45.3854 179.864L44.1837 163.165L48.1916 161.301L43.7998 160.639L43.8147 158.257L53.8389 158.035L53.8789 162.905Z" fill="#388BF2"/>
<path d="M86.2318 110.041C86.2318 110.041 95.947 146.857 93.1346 151.714C90.3222 156.572 53.3438 164.568 53.3438 164.568L53.251 157.339C53.251 157.339 79.0956 145.364 82.1636 146.131C76.0276 140.506 69.9553 111.83 69.9553 111.83L86.2318 110.041Z" fill="#093C59"/>
<path d="M47.8644 192.909L55.1431 210.423L41.7229 200.415L42.9324 196.163L39.5602 199.053L37.7676 197.485L44.1535 189.755L47.8644 192.909Z" fill="#388BF2"/>
<path d="M84.3993 110.371C84.3993 110.371 62.8294 161.542 49.9204 196.163C41.9941 196.163 42.9708 188.459 42.9708 188.459C42.9708 188.459 58.6185 115.87 67.5288 105.167C81.233 106.1 84.3993 110.371 84.3993 110.371Z" fill="#0B4870"/>
<path d="M69.9544 86.8179L43.8767 110.932L29.8008 113.467L43.7661 114.39L71.516 95.6926L69.9544 86.8179Z" fill="#DF9481"/>
<path d="M93.4398 63.3294C99.3825 63.3294 104.2 58.2424 104.2 51.9673C104.2 45.6923 99.3825 40.6053 93.4398 40.6053C87.4972 40.6053 82.6797 45.6923 82.6797 51.9673C82.6797 58.2424 87.4972 63.3294 93.4398 63.3294Z" fill="#0B4870"/>
<path d="M103.603 44.3696C103.603 44.3696 106.488 62.3725 103.141 65.9766C92.9875 65.2843 90.4492 61.4463 87.911 56.1388C85.3722 50.8312 91.1416 39.9851 103.603 44.3696Z" fill="#DF9481"/>
<path d="M106.144 44.3544C105.627 48.2995 90.3297 58.3657 86.9758 56.6089C86.4967 49.422 90.5067 36.3482 106.144 44.3544Z" fill="#0B4870"/>
<path d="M89.4592 56.9973C88.1814 55.6929 86.9476 55.5413 86.7435 57.2134C86.5589 58.7256 88.5408 60.9471 89.9782 60.5966C91.4156 60.2462 89.4592 56.9973 89.4592 56.9973Z" fill="#DF9481"/>
<path d="M89.9886 42.4241C86.5147 37.6431 80.4234 34.8989 74.5409 35.4645C72.5478 35.6561 70.5322 36.231 68.9814 37.4973C67.4305 38.7635 66.4259 40.8128 66.7784 42.7839C67.3581 46.0263 71.2575 48.2825 70.889 51.5557C70.7275 52.9903 69.7124 54.2168 68.4934 54.9904C67.2745 55.764 65.8587 56.156 64.4665 56.5378C61.3384 57.3956 58.1128 58.3015 55.5866 60.3358C53.0603 62.3704 51.4044 65.8558 52.4835 68.9147C53.185 70.9028 54.9653 72.7038 54.5354 74.7677C54.0922 76.8948 51.5672 77.8707 50.4777 79.7506C49.4103 81.5919 49.9678 84.0663 51.3843 85.6548C52.8008 87.2433 54.8997 88.0668 56.9924 88.4552C60.3662 89.0814 64.4446 88.3687 66.1151 85.3715C67.2787 83.2838 66.9326 80.6654 66.0893 78.429C65.2459 76.1926 63.9496 74.1391 63.2214 71.8628C62.4933 69.5864 62.4277 66.8939 63.8963 65.0083C65.4374 63.0296 68.1479 62.4998 70.5963 61.9554C73.0446 61.411 75.7569 60.4728 76.776 58.1807C77.6967 56.1095 76.961 53.4204 78.389 51.6602C79.6738 50.0767 82.0247 50.0592 83.9616 49.421C86.6274 48.5426 88.7542 46.192 89.3627 43.4519L89.9886 42.4241Z" fill="#0B4870"/>
<path d="M96.5409 62.8497L96.0404 68.906L100.147 78.7959L90.506 69.1768L89.9883 59.8988L96.5409 62.8497Z" fill="#DF9481"/>
<path d="M101.997 90.2105L95.0647 97.2751L88.6169 114.39L70.0593 107.81L63.7803 105.581L69.9527 100.183C69.9527 100.183 63.571 93.5333 62.3262 88.6646C73.9587 78.8092 82.8888 70.8963 90.5041 69.1779H92.5346L100.146 78.7946L101.997 90.2105Z" fill="#388BF2"/>
<path opacity="0.5" d="M82.1627 89.4175L70.0602 107.81L63.7812 105.581L69.9539 100.183L82.1627 89.4175Z" fill="#388BF2"/>
<path d="M216.438 162.918L229.989 180.816L224.957 152.803L214.512 154.749L216.438 162.918Z" fill="#388BF2"/>
<path d="M183.697 117.052C179.7 128.948 174.904 145.82 181.042 155.407C187.18 164.994 217.577 163.489 217.577 163.489L216.377 154.643C216.377 154.643 195.317 150.346 196.232 147.607C197.147 144.868 202.427 125.105 201.628 122.447C200.829 119.788 199.737 111.781 199.737 111.781L183.697 117.052Z" fill="#B1D9F2"/>
<path d="M221.038 197.793L205.272 213.775L232.272 204.771L228.846 194.713L221.038 197.793Z" fill="#388BF2"/>
<path d="M185.207 114.805C185.42 119.043 219.558 198.398 219.558 198.398L229.57 195.997C229.57 195.997 211.443 123.123 209.585 113.578C207.728 104.033 185.207 114.805 185.207 114.805Z" fill="#CCE9FF"/>
<path d="M222.755 90.0053L225.597 93.5573L232.448 117.446L234.302 127.516L229.389 126.092L228.394 119.609L227.118 122.167L225.717 122.426L227.453 116.928L219.577 97.3569L214.602 94.0252L222.755 90.0053Z" fill="#FFE3CA"/>
<path d="M179.59 60.391L146.643 41.289L142.579 31.4794L142.368 42.4554L171.686 64.7174L179.59 60.391Z" fill="#FFE3CA"/>
<path d="M191.106 66.6731L175.488 55.3505L167.24 64.2517L185.964 80.4699L191.106 66.6731Z" fill="#0B3E5B"/>
<path d="M191.106 66.6732C190.48 67.2311 184.457 71.8166 181.683 77.0499C178.909 82.2829 181.878 119.221 181.878 119.221L214.14 117.598L207.7 90.3101L214.129 97.2527L225.309 87.8589C225.309 87.8589 213.415 71.6276 210.892 69.939C206.161 66.773 191.106 66.6732 191.106 66.6732Z" fill="#0B4870"/>
<path d="M191.922 40.9738C194.501 41.1651 207.188 43.194 196.69 58.549C194.485 62.5937 191.922 40.9738 191.922 40.9738Z" fill="#0B4870"/>
<path d="M180.895 44.5776C180.895 44.5776 179.286 60.726 182.81 64.1575C185.337 63.857 189.252 63.7757 190.929 63.1506C195.957 61.2751 195.201 57.7845 197.162 55.4043C200.903 50.8633 193.12 39.5722 180.895 44.5776Z" fill="#FFE3CA"/>
<path d="M190.303 60.6497L190.83 66.9049L189.747 70.4794C189.258 71.8465 191.005 72.893 191.98 71.817L197.305 66.9538L196.901 55.4174L190.303 60.6497Z" fill="#FFE3CA"/>
<path d="M186.586 49.0464C185.366 48.9806 184.166 49.2639 182.966 49.4975C181.766 49.7312 180.431 49.8005 179.414 49.1225C178.019 48.1929 177.753 46.2583 176.719 44.9393C175.983 44.0005 174.893 43.4195 173.98 42.6522C173.845 42.5393 173.71 42.4165 173.643 42.2547C173.49 41.8888 173.729 41.4829 173.981 41.1769C174.878 40.0878 176.104 39.2525 177.473 38.9133C178.843 38.5738 180.352 38.7528 181.556 39.4888C182.654 40.16 183.513 41.2759 184.761 41.5906C186.643 42.0655 188.412 40.535 190.321 40.1837C190.985 40.0617 191.675 40.0857 192.329 40.2535C192.745 40.3604 193.151 40.5282 193.485 40.7984C194.401 41.5412 194.607 42.9013 195.487 43.6859C196.404 44.5031 197.843 44.5125 198.753 45.3384C199.387 45.9144 199.649 46.7837 199.875 47.6101C200.158 48.6437 200.407 49.8242 199.828 50.7259C199.576 51.119 198.93 54.6143 198.531 54.8576C196.237 56.2579 193.845 53.4779 191.659 52.3954C190.868 52.0039 190.233 51.368 189.739 50.637C189.329 50.0299 188.422 49.1455 186.586 49.0464Z" fill="#0B4870"/>
<path d="M194.397 50.572L194.458 56.4179L195.623 56.3594L197.517 50.4149L194.397 50.572Z" fill="#0B4870"/>
<path d="M195.997 51.3037C198.286 49.5639 199.017 50.1817 198.823 52.7887C198.63 55.3957 195.622 56.3593 195.622 56.3593L195.997 51.3037Z" fill="#FFE3CA"/>
<path d="M185.906 94.7945C187.74 94.7021 189.066 91.4267 188.868 87.4788C188.669 83.5309 187.02 80.4054 185.186 80.4978C183.351 80.5902 182.025 83.8655 182.224 87.8134C182.423 91.7613 184.071 94.8869 185.906 94.7945Z" fill="#388BF2"/>
<path d="M138.576 33.7788L133.264 28.2112" stroke="#388BF2" stroke-width="2" stroke-miterlimit="10" stroke-linecap="round"/>
<path d="M145.807 33.7788L151.119 28.2112" stroke="#388BF2" stroke-width="2" stroke-miterlimit="10" stroke-linecap="round"/>
<path d="M148.113 25.2579L148.462 24.8923" stroke="#388BF2" stroke-width="2" stroke-miterlimit="10" stroke-linecap="round"/>
<path d="M145.807 27.6759L147.505 25.8964" stroke="#388BF2" stroke-width="2" stroke-miterlimit="10" stroke-linecap="round"/>
<path d="M140.434 27.6759L138.736 25.8964" stroke="#388BF2" stroke-width="2" stroke-miterlimit="10" stroke-linecap="round"/>
<path d="M134.241 20.1757C129.082 20.1757 124.903 24.3573 124.903 29.5164C124.903 24.3573 120.722 20.1757 115.562 20.1757C120.722 20.1757 124.903 15.994 124.903 10.8349C124.903 15.994 129.082 20.1757 134.241 20.1757Z" fill="#388BF2"/>
<path d="M154.971 58.3114C152.387 58.3114 150.294 60.4059 150.294 62.9896C150.294 60.4056 148.2 58.3114 145.616 58.3114C148.2 58.3114 150.294 56.2169 150.294 53.6332C150.294 56.2169 152.388 58.3114 154.971 58.3114Z" fill="#388BF2"/>
</svg>
